<?xml version="1.0" encoding="utf-8"?>
<!-- Generator: Adobe Illustrator 19.2.1, SVG Export Plug-In . SVG Version: 6.00 Build 0)  -->
<!DOCTYPE svg PUBLIC "-//W3C//DTD SVG 1.1//EN" "http://www.w3.org/Graphics/SVG/1.1/DTD/svg11.dtd">
<svg version="1.1" id="Layer_1" xmlns="http://www.w3.org/2000/svg" xmlns:xlink="http://www.w3.org/1999/xlink" x="0px" y="0px"
	 viewBox="0 0 512 315" style="enable-background:new 0 0 512 315;" xml:space="preserve">
<style type="text/css">
	.st0{fill:#DDDDDD;}
</style>
<g>
	<path class="st0" d="M78.9,244.6c13.3-15.9,14.8-32.3,4.6-62.8c-6.5-19.3-17.3-34.1-9.4-46.1c8.5-12.8,26.4-0.4,11.5,16.7l3,2.1
		c18,2.1,26.8-22.5,13.4-29.6c-35.4-18.5-66.4,17.1-52.7,58.2c5.9,17.4,14.1,35.9,7.4,50.6c-5.7,12.6-16.8,20.1-24.2,20.3
		c-15.5,0.8-5.2-34.8,12.6-43.6c1.6-0.8,3.8-1.8,1.7-4.4c-22-2.5-34.9,7.7-42.3,21.9C-17.2,269.2,45.4,284.4,78.9,244.6z
		 M465.6,123.3c5.1,12.5,12.8,24.9,8.2,35.8c-3.8,9.4-8.7,13.3-14.2,14.2c-7.7,1.3-5.6-22.8,7.6-29.9c1.2-0.7,2.9-3.8,1.3-5.6
		c-16.7-0.9-26,7-31.1,17.6c-14.7,30.9,33.3,39.3,56.9,9c9.4-12.1,9.8-24.1,0.8-45.8c-5.7-13.8-14.5-24.1-9-33.2
		c5.9-9.6,19.9-1.3,9.4,11.6l2.3,1.3c13.7,0.8,19.3-17.4,8.9-22C479.1,64.4,453.5,94,465.6,123.3z M291.7,90.3
		c-9.5-7.6-36.2,5.1-43.7,23.8c-9.5,23.8-23.6,58.6-37.4,73.8c-14.6,16-16,3.6-14.6-5.6c3.4-21.7,24.6-72.1,36.2-86.3
		c-4.3-6.4-32.4-5.5-51.9,24.9c-7.3,11.5-24,49.6-42.4,79.7c-4,6.5-9.1,2-5.2-13.3c4.4-17.6,17.4-65.9,34.2-103.9
		c44-8.7,90.7-14.8,126.6-15c4.8-1.3,8.1-5.6,0-5.9c-30.9-1-77.2,2.6-120.6,8.1c8.3-16.7,17.3-29.9,26.4-35.5
		c-9.9-6.2-29.9-3.8-41.4,13.1c-5.1,7.6-10.2,16.7-15,26.6c-31.8,4.9-59,10.5-72.8,15.8c-14.3,5.5-12.8,22.8-4,19.5
		c18.1-6.8,42.6-13.8,69.8-20.1c-17.3,39.1-30.9,85.1-34.1,103.9c-8.1,45.6,20.2,45.3,34,27.3c15-19.7,46.2-88.8,51-96.1
		c1.4-2.5,3.4-1.2,2.3,1c-34.9,69.7-31.9,96.6-3.6,90.6c12.8-2.7,34.8-24.6,40.5-35.9c1.2-2.7,3.6-2.5,3.1-1.3
		c-22.1,57.4-50.3,103.9-69.1,118.5c-17.2,13.1-29.9-15.4,30.9-56.2c9-6.1,4.8-14.5-5.3-11.6c-31.4,4.9-121.2,33.5-160.7,60.8
		c-3,2.1-5.7,3.8-5.6,8.1c0.1,2.5,4.4,1.6,6.5,0.3c51-30.6,92.8-42.6,140.7-52.6c0.7,0.3,1.4,0.4,2.1,0.1c2.2-0.5,2.1,0.7,0.7,1.6
		c-3.3,1.8-6.5,3.5-7.3,3.8c-32.3,12.6-51.8,40.5-44.9,54.7c5.9,12.2,37.5,7.8,52.5-0.3c36.7-19.9,63.4-59,81.6-112.9
		C266.9,146,287,91.9,291.7,90.3z M505,200.6c-59.8-7.8-188.7,2.6-245.6,17.7c-16.9,4.4-12.2,13.4-3.6,11.7c0.1,0,3.8-0.9,3.9-0.9
		c46.7-9.1,160.1-17.1,226.3-4.4C494,226.1,517.8,202.3,505,200.6z M308.3,193.6c16.7-8.3,41.4-59.9,57.7-88.1
		c1.2-2.1,3.3-0.4,2.1,1c-41.1,70.8-23.7,79-7.4,78c21.7-1.3,41.8-32.5,46.2-39.6c1.8-2.7,2.9-0.5,1.8,1.4c-1,3.3-4.8,9-8.3,16.8
		c-4.9,11.1,0.3,15.4,4.6,17.3c6.8,3.3,25.3,1.2,28.1-10.2c-18.5-0.4,25.8-87.6,30.3-93c-12.4-7.2-31.5,0.7-40.2,17.8
		c-18.6,36.8-34.2,66.5-44,67.1c-19,1,21.9-82.2,28.5-84.8c-4-5.9-29.9-3.4-44.4,19c-5.2,8.1-37,64.3-44.8,73.6
		c-13.8,16.4-14.8,2.3-10.9-14.1c1.3-5.6,3.5-12.8,6.4-20.7c9.1-20.6,18.9-27.1,24.9-33.7c40.2-44.7,63.3-80.9,54.2-95
		c-8.1-12.6-35-7-52.3,19c-31.9,47.8-61.3,113.3-65.1,143.2C271.9,198.6,293.6,200.9,308.3,193.6z M325.2,105.9
		c1.4-3.3,2.3-4.2,4.8-9.6l0,0c14.3-31.5,32.3-64.7,44.7-80.2c7.7-8.1,18.5,2.9-1,32.8c-11.5,17.7-24.5,34-38.7,48.3c0,0,0,0,0,0.1
		c-3.6,4-6.9,7.4-8.3,9.4C325.6,108,324.5,107.8,325.2,105.9L325.2,105.9z"/>
</g>
</svg>
