<svg xmlns="http://www.w3.org/2000/svg" xmlns:xlink="http://www.w3.org/1999/xlink" version="1.1" viewBox="0 0 85.371 100.389" overflow="visible" enable-background="new 0 0 85.371 100.389" xml:space="preserve" x="0px" y="0px"><g><g><path d="M34.072,17.605c-1.399,1.709-2.682,4.534-2.376,7.724c0.281,2.93,1.671,5.049,3.522,6.619    c1.811,1.535,4.5,2.803,7.681,2.419c2.886-0.348,5.014-1.741,6.577-3.563c1.531-1.787,2.738-4.409,2.503-7.596    c-0.233-3.168-1.642-5.166-3.479-6.662c-1.732-1.411-4.474-2.728-7.723-2.462C37.831,14.326,35.473,15.892,34.072,17.605z     M33.521,65.301c-0.547,0.507-0.981,0.982-1.443,1.315c0-3.833,0-7.666,0-11.499c0.148-0.072,0.219,0.13,0.297,0.212    c0.308,0.321,0.662,0.662,1.018,1.018c0.321,0.321,0.924,1.196,1.358,1.315c0.514,0.141,1.234,0,1.825,0c0.597,0,1.165,0,1.783,0    c0.099-4.427,0.014-9.039,0.042-13.537c-9.887,0.322-19.324,1.73-25.545,6.196c-1.959,1.406-4.07,3.305-4.286,6.28    c-0.27,3.699,1,6.485,4.286,6.704c2.477,0.166,5.112-0.621,5.389-2.8c0.217-1.708-0.788-2.791-2.037-3.352    c0.247,0.628,0.915,1.396,0.722,2.672c-0.197,1.301-1.656,2.237-3.226,2.249c-1.379,0.01-2.305-0.714-2.716-1.314    c-0.804-1.18-0.604-3.122,0.042-4.116c0.948-1.456,2.935-2.084,5.05-2.037c1.529,0.034,2.749,0.905,3.65,2.079    c0.847,1.104,1.574,2.501,1.442,4.244c-0.188,2.484-2.347,4.123-4.667,4.751c-2.672,0.725-5.865,0.371-7.85-0.806    c-1.977-1.172-3.048-3.317-3.352-6.067c-0.351-3.178,0.479-5.636,1.655-7.553c2.315-3.778,6.282-6.451,10.439-8.403    c4.372-2.053,8.87-3.5,14.809-3.987c-0.09-0.187-0.309-0.289-0.467-0.382c-2.755-1.658-4.993-4.048-6.323-7.214    c-1.392-3.316-1.882-8.332-0.764-12.392c1.023-3.715,3.017-6.516,5.813-8.656c2.612-1.999,6.35-3.667,10.693-3.734    c4.607-0.069,8.243,1.34,11.075,3.395c2.809,2.039,4.993,4.754,6.237,8.19c1.322,3.654,1.186,8.832,0.043,12.519    c-1.137,3.666-3.349,6.282-6.322,8.104c5.771-0.389,10.748-1.256,14.979-3.14c4.204-1.874,7.658-4.523,10.736-7.214    c-0.79,4.45-2.462,8.534-2.462,13.833c0,4.712,1.144,8.356,2.928,11.33c0.236,0.396,0.685,0.867,0.467,1.4    c-0.78,0.071-1.155-0.735-1.528-1.189c-2.896-3.516-6.588-6.158-11.499-7.808c-5.545-1.86-12.732-1.843-20.325-1.782    c0,4.498,0,8.996,0,13.495c1.106-0.099,2.318,0.281,3.309,0.042c0.463-0.111,1.016-0.974,1.359-1.315    c0.495-0.496,0.886-0.956,1.315-1.272c0,3.833,0,7.667,0,11.498c-0.149,0.052-0.279-0.119-0.382-0.211    c-0.634-0.562-1.202-1.11-1.91-1.74c-0.246-0.217-0.575-0.579-0.806-0.636c-0.866-0.212-1.798,0.155-2.843,0    c-0.099,5.319-0.014,10.819-0.042,16.21c1.658-1.017,3.419-2.296,5.092-3.438c-2.725,5.76-5.67,11.671-8.486,17.482    c-3-5.842-5.903-11.776-8.911-17.61c1.711,1.062,3.44,2.472,5.219,3.607c0-5.403,0-10.807,0-16.21    c-1.127,0.083-2.337-0.26-3.353-0.042C34.559,64.089,33.892,64.954,33.521,65.301z"></path></g></g></svg>